{"glyphs":{"0":{"ha":833,"x_min":0,"x_max":0,"o":"m 139 833 l 556 833 l 556 972 l 139 972 z m 278 278 l 278 417 l 139 417 l 139 833 l 0 833 l 0 139 l 139 139 l 139 278 z m 556 833 l 556 694 l 417 694 l 417 556 l 556 556 l 556 139 l 694 139 l 694 833 z m 278 417 l 417 417 l 417 556 l 278 556 z m 556 139 l 139 139 l 139 0 l 556 0 z "},"1":{"ha":833,"x_min":0,"x_max":0,"o":"m 694 139 l 417 139 l 417 972 l 278 972 l 278 833 l 139 833 l 139 694 l 278 694 l 278 139 l 0 139 l 0 0 l 694 0 z "},"2":{"ha":833,"x_min":0,"x_max":0,"o":"m 556 972 l 139 972 l 139 833 l 556 833 z m 0 694 l 139 694 l 139 833 l 0 833 z m 556 833 l 556 556 l 694 556 l 694 833 z m 278 556 l 278 417 l 556 417 l 556 556 z m 139 278 l 278 278 l 278 417 l 139 417 z m 0 278 l 0 0 l 694 0 l 694 278 l 556 278 l 556 139 l 139 139 l 139 278 z "},"3":{"ha":833,"x_min":0,"x_max":0,"o":"m 556 972 l 139 972 l 139 833 l 556 833 z m 0 694 l 139 694 l 139 833 l 0 833 z m 556 833 l 556 556 l 694 556 l 694 833 z m 278 556 l 278 417 l 556 417 l 556 556 z m 556 139 l 694 139 l 694 417 l 556 417 z m 0 278 l 0 139 l 139 139 l 139 278 z m 556 139 l 139 139 l 139 0 l 556 0 z "},"4":{"ha":833,"x_min":0,"x_max":0,"o":"m 694 972 l 417 972 l 417 833 l 556 833 l 556 417 l 139 417 l 139 556 l 0 556 l 0 278 l 556 278 l 556 0 l 694 0 z m 417 833 l 278 833 l 278 694 l 417 694 z m 278 694 l 139 694 l 139 556 l 278 556 z "},"5":{"ha":833,"x_min":0,"x_max":0,"o":"m 139 833 l 694 833 l 694 972 l 0 972 l 0 556 l 556 556 l 556 694 l 139 694 z m 556 556 l 556 139 l 694 139 l 694 556 z m 0 278 l 0 139 l 139 139 l 139 278 z m 556 139 l 139 139 l 139 0 l 556 0 z "},"6":{"ha":833,"x_min":0,"x_max":0,"o":"m 556 833 l 556 972 l 278 972 l 278 833 z m 278 833 l 139 833 l 139 694 l 278 694 z m 139 417 l 556 417 l 556 556 l 139 556 l 139 694 l 0 694 l 0 139 l 139 139 z m 556 417 l 556 139 l 694 139 l 694 417 z m 556 139 l 139 139 l 139 0 l 556 0 z "},"7":{"ha":833,"x_min":0,"x_max":0,"o":"m 694 972 l 0 972 l 0 694 l 139 694 l 139 833 l 556 833 l 556 556 l 694 556 z m 417 417 l 556 417 l 556 556 l 417 556 z m 278 417 l 278 0 l 417 0 l 417 417 z "},"8":{"ha":833,"x_min":0,"x_max":0,"o":"m 139 833 l 556 833 l 556 972 l 139 972 z m 139 833 l 0 833 l 0 556 l 139 556 z m 556 833 l 556 556 l 694 556 l 694 833 z m 556 556 l 139 556 l 139 417 l 556 417 z m 139 417 l 0 417 l 0 139 l 139 139 z m 556 139 l 694 139 l 694 417 l 556 417 z m 556 139 l 139 139 l 139 0 l 556 0 z "},"9":{"ha":833,"x_min":0,"x_max":0,"o":"m 139 833 l 556 833 l 556 972 l 139 972 z m 139 833 l 0 833 l 0 556 l 139 556 z m 556 833 l 556 556 l 139 556 l 139 417 l 556 417 l 556 278 l 694 278 l 694 833 z m 417 139 l 556 139 l 556 278 l 417 278 z m 139 139 l 139 0 l 417 0 l 417 139 z "},"A":{"ha":833,"x_min":0,"x_max":0,"o":"m 139 833 l 556 833 l 556 972 l 139 972 z m 556 833 l 556 694 l 139 694 l 139 833 l 0 833 l 0 0 l 139 0 l 139 556 l 556 556 l 556 0 l 694 0 l 694 833 z "},"Ä":{"ha":833,"x_min":0,"x_max":0,"o":"m 0 972 l 0 833 l 139 833 l 139 972 z m 694 972 l 556 972 l 556 833 l 694 833 z m 556 833 l 139 833 l 139 694 l 556 694 z m 556 556 l 139 556 l 139 694 l 0 694 l 0 0 l 139 0 l 139 417 l 556 417 l 556 0 l 694 0 l 694 694 l 556 694 z "},"Å":{"ha":833,"x_min":0,"x_max":0,"o":"m 417 972 l 278 972 l 278 833 l 417 833 z m 139 556 l 556 556 l 556 694 l 139 694 z m 556 556 l 556 417 l 139 417 l 139 556 l 0 556 l 0 0 l 139 0 l 139 278 l 556 278 l 556 0 l 694 0 l 694 556 z "},"Æ":{"ha":833,"x_min":0,"x_max":0,"o":"m 417 833 l 694 833 l 694 972 l 139 972 l 139 833 l 278 833 l 278 694 l 139 694 l 139 833 l 0 833 l 0 0 l 139 0 l 139 556 l 278 556 l 278 0 l 694 0 l 694 139 l 417 139 l 417 556 l 556 556 l 556 694 l 417 694 z "},"B":{"ha":833,"x_min":0,"x_max":0,"o":"m 556 694 l 139 694 l 139 833 l 556 833 l 556 972 l 0 972 l 0 0 l 556 0 l 556 139 l 139 139 l 139 556 l 556 556 z m 694 694 l 694 833 l 556 833 l 556 694 z m 556 556 l 556 139 l 694 139 l 694 556 z "},"C":{"ha":833,"x_min":0,"x_max":0,"o":"m 556 972 l 139 972 l 139 833 l 556 833 z m 0 833 l 0 139 l 139 139 l 139 833 z m 694 694 l 694 833 l 556 833 l 556 694 z m 694 278 l 556 278 l 556 139 l 694 139 z m 139 0 l 556 0 l 556 139 l 139 139 z "},"Ç":{"ha":833,"x_min":0,"x_max":0,"o":"m 556 972 l 139 972 l 139 833 l 556 833 z m 0 833 l 0 139 l 139 139 l 139 833 z m 694 694 l 694 833 l 556 833 l 556 694 z m 694 278 l 556 278 l 556 139 l 694 139 z m 139 0 l 556 0 l 556 139 l 139 139 z m 694 -139 l 694 0 l 556 0 l 556 -139 z m 278 -139 l 278 -278 l 556 -278 l 556 -139 z "},"D":{"ha":833,"x_min":0,"x_max":0,"o":"m 556 139 l 139 139 l 139 833 l 556 833 l 556 972 l 0 972 l 0 0 l 556 0 z m 556 833 l 556 139 l 694 139 l 694 833 z "},"E":{"ha":833,"x_min":0,"x_max":0,"o":"m 139 833 l 694 833 l 694 972 l 0 972 l 0 0 l 694 0 l 694 139 l 139 139 l 139 556 l 417 556 l 417 694 l 139 694 z "},"F":{"ha":833,"x_min":0,"x_max":0,"o":"m 694 972 l 0 972 l 0 0 l 139 0 l 139 556 l 417 556 l 417 694 l 139 694 l 139 833 l 694 833 z "},"G":{"ha":833,"x_min":0,"x_max":0,"o":"m 139 833 l 694 833 l 694 972 l 139 972 z m 139 139 l 139 833 l 0 833 l 0 139 z m 694 139 l 694 694 l 417 694 l 417 556 l 556 556 l 556 139 z m 139 0 l 556 0 l 556 139 l 139 139 z "},"H":{"ha":833,"x_min":0,"x_max":0,"o":"m 556 972 l 556 694 l 139 694 l 139 972 l 0 972 l 0 0 l 139 0 l 139 556 l 556 556 l 556 0 l 694 0 l 694 972 z "},"I":{"ha":556,"x_min":0,"x_max":0,"o":"m 278 139 l 278 833 l 417 833 l 417 972 l 0 972 l 0 833 l 139 833 l 139 139 l 0 139 l 0 0 l 417 0 l 417 139 z "},"J":{"ha":833,"x_min":0,"x_max":0,"o":"m 556 972 l 556 139 l 694 139 l 694 972 z m 0 278 l 0 139 l 139 139 l 139 278 z m 556 139 l 139 139 l 139 0 l 556 0 z "},"K":{"ha":833,"x_min":0,"x_max":0,"o":"m 417 694 l 139 694 l 139 972 l 0 972 l 0 0 l 139 0 l 139 556 l 417 556 z m 694 972 l 556 972 l 556 833 l 694 833 z m 556 833 l 417 833 l 417 694 l 556 694 z m 556 417 l 556 556 l 417 556 l 417 417 z m 556 417 l 556 0 l 694 0 l 694 417 z "},"L":{"ha":833,"x_min":0,"x_max":0,"o":"m 694 139 l 139 139 l 139 972 l 0 972 l 0 0 l 694 0 z "},"M":{"ha":833,"x_min":0,"x_max":0,"o":"m 139 833 l 139 972 l 0 972 l 0 0 l 139 0 l 139 694 l 278 694 l 278 833 z m 556 972 l 556 833 l 417 833 l 417 694 l 556 694 l 556 0 l 694 0 l 694 972 z m 278 556 l 417 556 l 417 694 l 278 694 z "},"N":{"ha":833,"x_min":0,"x_max":0,"o":"m 139 833 l 139 972 l 0 972 l 0 0 l 139 0 l 139 694 l 278 694 l 278 833 z m 556 972 l 556 556 l 417 556 l 417 417 l 556 417 l 556 0 l 694 0 l 694 972 z m 278 694 l 278 556 l 417 556 l 417 694 z "},"Ñ":{"ha":833,"x_min":0,"x_max":0,"o":"m 694 972 l 0 972 l 0 833 l 694 833 z m 139 556 l 139 694 l 0 694 l 0 0 l 139 0 l 139 417 l 278 417 l 278 556 z m 556 694 l 556 278 l 417 278 l 417 139 l 556 139 l 556 0 l 694 0 l 694 694 z m 278 417 l 278 278 l 417 278 l 417 417 z "},"O":{"ha":833,"x_min":0,"x_max":0,"o":"m 139 833 l 556 833 l 556 972 l 139 972 z m 139 139 l 139 833 l 0 833 l 0 139 z m 556 833 l 556 139 l 694 139 l 694 833 z m 556 139 l 139 139 l 139 0 l 556 0 z "},"Ø":{"ha":833,"x_min":0,"x_max":0,"o":"m 139 833 l 556 833 l 556 972 l 139 972 z m 278 278 l 278 417 l 139 417 l 139 833 l 0 833 l 0 139 l 139 139 l 139 278 z m 556 833 l 556 694 l 417 694 l 417 556 l 556 556 l 556 139 l 694 139 l 694 833 z m 278 417 l 417 417 l 417 556 l 278 556 z m 556 139 l 139 139 l 139 0 l 556 0 z "},"P":{"ha":833,"x_min":0,"x_max":0,"o":"m 556 694 l 139 694 l 139 833 l 556 833 l 556 972 l 0 972 l 0 0 l 139 0 l 139 556 l 556 556 z m 556 833 l 556 694 l 694 694 l 694 833 z "},"Q":{"ha":833,"x_min":0,"x_max":0,"o":"m 139 833 l 556 833 l 556 972 l 139 972 z m 139 139 l 139 833 l 0 833 l 0 139 z m 556 833 l 556 278 l 694 278 l 694 833 z m 417 139 l 556 139 l 556 278 l 417 278 z m 139 139 l 139 0 l 417 0 l 417 139 z m 694 0 l 694 139 l 556 139 l 556 0 z "},"R":{"ha":833,"x_min":0,"x_max":0,"o":"m 556 694 l 139 694 l 139 833 l 556 833 l 556 972 l 0 972 l 0 0 l 139 0 l 139 556 l 556 556 z m 694 694 l 694 833 l 556 833 l 556 694 z m 556 556 l 556 0 l 694 0 l 694 556 z "},"S":{"ha":833,"x_min":0,"x_max":0,"o":"m 139 833 l 694 833 l 694 972 l 139 972 z m 0 833 l 0 694 l 139 694 l 139 833 z m 139 556 l 556 556 l 556 694 l 139 694 z m 556 556 l 556 139 l 694 139 l 694 556 z m 0 278 l 0 139 l 139 139 l 139 278 z m 556 139 l 139 139 l 139 0 l 556 0 z "},"T":{"ha":833,"x_min":0,"x_max":0,"o":"m 694 972 l 0 972 l 0 833 l 278 833 l 278 0 l 417 0 l 417 833 l 694 833 z "},"U":{"ha":833,"x_min":0,"x_max":0,"o":"m 139 139 l 139 972 l 0 972 l 0 139 z m 556 972 l 556 139 l 694 139 l 694 972 z m 556 139 l 139 139 l 139 0 l 556 0 z "},"Ü":{"ha":833,"x_min":0,"x_max":0,"o":"m 139 972 l 0 972 l 0 833 l 139 833 z m 556 972 l 556 833 l 694 833 l 694 972 z m 139 139 l 139 694 l 0 694 l 0 139 z m 556 694 l 556 139 l 694 139 l 694 694 z m 556 139 l 139 139 l 139 0 l 556 0 z "},"V":{"ha":833,"x_min":0,"x_max":0,"o":"m 139 417 l 139 972 l 0 972 l 0 417 z m 556 972 l 556 417 l 694 417 l 694 972 z m 278 417 l 139 417 l 139 139 l 278 139 z m 417 417 l 417 139 l 556 139 l 556 417 z m 278 0 l 417 0 l 417 139 l 278 139 z "},"W":{"ha":833,"x_min":0,"x_max":0,"o":"m 139 278 l 139 972 l 0 972 l 0 0 l 139 0 l 139 139 l 278 139 l 278 278 z m 556 972 l 556 278 l 417 278 l 417 139 l 556 139 l 556 0 l 694 0 l 694 972 z m 278 417 l 278 278 l 417 278 l 417 417 z "},"X":{"ha":833,"x_min":0,"x_max":0,"o":"m 0 972 l 0 833 l 139 833 l 139 972 z m 694 972 l 556 972 l 556 833 l 694 833 z m 139 833 l 139 694 l 278 694 l 278 833 z m 556 833 l 417 833 l 417 694 l 556 694 z m 278 694 l 278 556 l 417 556 l 417 694 z m 139 417 l 278 417 l 278 556 l 139 556 z m 556 417 l 556 556 l 417 556 l 417 417 z m 0 417 l 0 0 l 139 0 l 139 417 z m 556 417 l 556 0 l 694 0 l 694 417 z "},"Y":{"ha":833,"x_min":0,"x_max":0,"o":"m 0 972 l 0 833 l 139 833 l 139 972 z m 556 972 l 556 833 l 694 833 l 694 972 z m 139 833 l 139 694 l 278 694 l 278 833 z m 417 694 l 556 694 l 556 833 l 417 833 z m 278 694 l 278 0 l 417 0 l 417 694 z "},"Z":{"ha":833,"x_min":0,"x_max":0,"o":"m 694 972 l 0 972 l 0 833 l 556 833 l 556 694 l 694 694 z m 417 556 l 556 556 l 556 694 l 417 694 z m 278 417 l 417 417 l 417 556 l 278 556 z m 139 278 l 278 278 l 278 417 l 139 417 z m 0 278 l 0 0 l 694 0 l 694 139 l 139 139 l 139 278 z "},"a":{"ha":833,"x_min":0,"x_max":0,"o":"m 556 694 l 139 694 l 139 556 l 556 556 z m 556 556 l 556 417 l 139 417 l 139 278 l 556 278 l 556 139 l 139 139 l 139 0 l 694 0 l 694 556 z m 0 278 l 0 139 l 139 139 l 139 278 z "},"á":{"ha":833,"x_min":0,"x_max":0,"o":"m 694 972 l 417 972 l 417 833 l 694 833 z m 556 694 l 139 694 l 139 556 l 556 556 z m 556 417 l 139 417 l 139 278 l 556 278 l 556 139 l 139 139 l 139 0 l 694 0 l 694 556 l 556 556 z m 0 278 l 0 139 l 139 139 l 139 278 z "},"â":{"ha":833,"x_min":0,"x_max":0,"o":"m 139 833 l 556 833 l 556 972 l 139 972 z m 0 833 l 0 694 l 139 694 l 139 833 z m 694 694 l 694 833 l 556 833 l 556 694 z m 556 694 l 139 694 l 139 556 l 556 556 z m 556 417 l 139 417 l 139 278 l 556 278 l 556 139 l 139 139 l 139 0 l 694 0 l 694 556 l 556 556 z m 0 278 l 0 139 l 139 139 l 139 278 z "},"à":{"ha":833,"x_min":0,"x_max":0,"o":"m 278 833 l 278 972 l 0 972 l 0 833 z m 556 694 l 139 694 l 139 556 l 556 556 z m 556 556 l 556 417 l 139 417 l 139 278 l 556 278 l 556 139 l 139 139 l 139 0 l 694 0 l 694 556 z m 0 278 l 0 139 l 139 139 l 139 278 z "},"å":{"ha":833,"x_min":0,"x_max":0,"o":"m 417 972 l 278 972 l 278 833 l 417 833 z m 556 694 l 139 694 l 139 556 l 556 556 z m 556 556 l 556 417 l 139 417 l 139 278 l 556 278 l 556 139 l 139 139 l 139 0 l 694 0 l 694 556 z m 0 278 l 0 139 l 139 139 l 139 278 z "},"æ":{"ha":833,"x_min":0,"x_max":0,"o":"m 139 694 l 139 556 l 278 556 l 278 694 z m 556 694 l 417 694 l 417 556 l 556 556 z m 556 278 l 556 417 l 417 417 l 417 556 l 278 556 l 278 417 l 139 417 l 139 278 l 278 278 l 278 139 l 139 139 l 139 0 l 694 0 l 694 139 l 417 139 l 417 278 z m 694 417 l 694 556 l 556 556 l 556 417 z m 0 278 l 0 139 l 139 139 l 139 278 z "},"b":{"ha":833,"x_min":0,"x_max":0,"o":"m 556 139 l 139 139 l 139 417 l 278 417 l 278 556 l 139 556 l 139 972 l 0 972 l 0 0 l 556 0 z m 556 556 l 556 694 l 278 694 l 278 556 z m 556 556 l 556 139 l 694 139 l 694 556 z "},"c":{"ha":833,"x_min":0,"x_max":0,"o":"m 556 694 l 139 694 l 139 556 l 556 556 z m 0 556 l 0 139 l 139 139 l 139 556 z m 694 417 l 694 556 l 556 556 l 556 417 z m 694 278 l 556 278 l 556 139 l 694 139 z m 139 0 l 556 0 l 556 139 l 139 139 z "},"ç":{"ha":833,"x_min":0,"x_max":0,"o":"m 556 694 l 139 694 l 139 556 l 556 556 z m 0 556 l 0 139 l 139 139 l 139 556 z m 694 417 l 694 556 l 556 556 l 556 417 z m 694 278 l 556 278 l 556 139 l 694 139 z m 139 0 l 556 0 l 556 139 l 139 139 z m 694 -139 l 694 0 l 556 0 l 556 -139 z m 278 -139 l 278 -278 l 556 -278 l 556 -139 z "},"d":{"ha":833,"x_min":0,"x_max":0,"o":"m 556 972 l 556 556 l 417 556 l 417 417 l 556 417 l 556 139 l 139 139 l 139 0 l 694 0 l 694 972 z m 417 556 l 417 694 l 139 694 l 139 556 z m 139 139 l 139 556 l 0 556 l 0 139 z "},"e":{"ha":833,"x_min":0,"x_max":0,"o":"m 139 556 l 556 556 l 556 694 l 139 694 z m 556 556 l 556 417 l 139 417 l 139 556 l 0 556 l 0 139 l 139 139 l 139 278 l 694 278 l 694 556 z m 139 0 l 694 0 l 694 139 l 139 139 z "},"ê":{"ha":833,"x_min":0,"x_max":0,"o":"m 139 833 l 556 833 l 556 972 l 139 972 z m 0 833 l 0 694 l 139 694 l 139 833 z m 694 694 l 694 833 l 556 833 l 556 694 z m 556 694 l 139 694 l 139 556 l 556 556 z m 556 417 l 139 417 l 139 556 l 0 556 l 0 139 l 139 139 l 139 278 l 694 278 l 694 556 l 556 556 z m 139 0 l 694 0 l 694 139 l 139 139 z "},"ë":{"ha":833,"x_min":0,"x_max":0,"o":"m 278 972 l 139 972 l 139 833 l 278 833 z m 556 972 l 417 972 l 417 833 l 556 833 z m 139 556 l 556 556 l 556 694 l 139 694 z m 556 556 l 556 417 l 139 417 l 139 556 l 0 556 l 0 139 l 139 139 l 139 278 l 694 278 l 694 556 z m 139 0 l 694 0 l 694 139 l 139 139 z "},"f":{"ha":694,"x_min":0,"x_max":0,"o":"m 556 833 l 556 972 l 278 972 l 278 833 z m 139 833 l 139 694 l 0 694 l 0 556 l 139 556 l 139 0 l 278 0 l 278 556 l 556 556 l 556 694 l 278 694 l 278 833 z "},"g":{"ha":833,"x_min":0,"x_max":0,"o":"m 694 694 l 139 694 l 139 556 l 556 556 l 556 278 l 139 278 l 139 139 l 556 139 l 556 0 l 694 0 z m 139 556 l 0 556 l 0 278 l 139 278 z m 556 0 l 0 0 l 0 -139 l 556 -139 z "},"h":{"ha":833,"x_min":0,"x_max":0,"o":"m 139 556 l 139 972 l 0 972 l 0 0 l 139 0 l 139 417 l 278 417 l 278 556 z m 556 694 l 278 694 l 278 556 l 556 556 z m 556 556 l 556 0 l 694 0 l 694 556 z "},"i":{"ha":278,"x_min":0,"x_max":0,"o":"m 0 972 l 0 833 l 139 833 l 139 972 z m 0 694 l 0 0 l 139 0 l 139 694 z "},"í":{"ha":417,"x_min":0,"x_max":0,"o":"m 278 972 l 0 972 l 0 833 l 278 833 z m 0 694 l 0 0 l 139 0 l 139 694 z "},"î":{"ha":556,"x_min":0,"x_max":0,"o":"m 139 972 l 0 972 l 0 833 l 139 833 z m 278 972 l 278 833 l 417 833 l 417 972 z m 139 694 l 139 0 l 278 0 l 278 694 z "},"j":{"ha":833,"x_min":0,"x_max":0,"o":"m 556 972 l 556 833 l 694 833 l 694 972 z m 556 694 l 556 0 l 694 0 l 694 694 z m 0 139 l 0 0 l 139 0 l 139 139 z m 556 0 l 139 0 l 139 -139 l 556 -139 z "},"k":{"ha":694,"x_min":0,"x_max":0,"o":"m 139 417 l 139 972 l 0 972 l 0 0 l 139 0 l 139 278 l 278 278 l 278 417 z m 556 694 l 417 694 l 417 556 l 556 556 z m 417 556 l 278 556 l 278 417 l 417 417 z m 417 139 l 417 278 l 278 278 l 278 139 z m 556 0 l 556 139 l 417 139 l 417 0 z "},"l":{"ha":417,"x_min":0,"x_max":0,"o":"m 139 139 l 139 972 l 0 972 l 0 139 z m 139 139 l 139 0 l 278 0 l 278 139 z "},"m":{"ha":833,"x_min":0,"x_max":0,"o":"m 278 694 l 0 694 l 0 0 l 139 0 l 139 556 l 278 556 z m 417 694 l 417 556 l 556 556 l 556 694 z m 278 556 l 278 278 l 417 278 l 417 556 z m 556 556 l 556 0 l 694 0 l 694 556 z "},"n":{"ha":833,"x_min":0,"x_max":0,"o":"m 556 694 l 0 694 l 0 0 l 139 0 l 139 556 l 556 556 z m 556 556 l 556 0 l 694 0 l 694 556 z "},"ñ":{"ha":833,"x_min":0,"x_max":0,"o":"m 694 972 l 0 972 l 0 833 l 694 833 z m 556 694 l 0 694 l 0 0 l 139 0 l 139 556 l 556 556 z m 556 556 l 556 0 l 694 0 l 694 556 z "},"o":{"ha":833,"x_min":0,"x_max":0,"o":"m 139 556 l 556 556 l 556 694 l 139 694 z m 139 139 l 139 556 l 0 556 l 0 139 z m 556 556 l 556 139 l 694 139 l 694 556 z m 556 139 l 139 139 l 139 0 l 556 0 z "},"ó":{"ha":833,"x_min":0,"x_max":0,"o":"m 694 972 l 417 972 l 417 833 l 694 833 z m 139 556 l 556 556 l 556 694 l 139 694 z m 139 139 l 139 556 l 0 556 l 0 139 z m 556 556 l 556 139 l 694 139 l 694 556 z m 556 139 l 139 139 l 139 0 l 556 0 z "},"ô":{"ha":833,"x_min":0,"x_max":0,"o":"m 139 833 l 556 833 l 556 972 l 139 972 z m 0 833 l 0 694 l 139 694 l 139 833 z m 694 694 l 694 833 l 556 833 l 556 694 z m 556 694 l 139 694 l 139 556 l 556 556 z m 139 139 l 139 556 l 0 556 l 0 139 z m 556 556 l 556 139 l 694 139 l 694 556 z m 556 139 l 139 139 l 139 0 l 556 0 z "},"ö":{"ha":833,"x_min":0,"x_max":0,"o":"m 278 972 l 139 972 l 139 833 l 278 833 z m 556 972 l 417 972 l 417 833 l 556 833 z m 139 556 l 556 556 l 556 694 l 139 694 z m 139 139 l 139 556 l 0 556 l 0 139 z m 556 556 l 556 139 l 694 139 l 694 556 z m 556 139 l 139 139 l 139 0 l 556 0 z "},"ò":{"ha":833,"x_min":0,"x_max":0,"o":"m 278 833 l 278 972 l 0 972 l 0 833 z m 139 556 l 556 556 l 556 694 l 139 694 z m 139 139 l 139 556 l 0 556 l 0 139 z m 556 556 l 556 139 l 694 139 l 694 556 z m 556 139 l 139 139 l 139 0 l 556 0 z "},"ø":{"ha":833,"x_min":0,"x_max":0,"o":"m 556 556 l 556 694 l 139 694 l 139 556 l 417 556 l 417 417 l 556 417 l 556 139 l 694 139 l 694 556 z m 278 139 l 278 278 l 139 278 l 139 556 l 0 556 l 0 139 l 139 139 l 139 0 l 278 0 l 278 -139 l 417 -139 l 417 0 l 556 0 l 556 139 z m 278 278 l 417 278 l 417 417 l 278 417 z "},"p":{"ha":833,"x_min":0,"x_max":0,"o":"m 556 278 l 139 278 l 139 417 l 278 417 l 278 556 l 139 556 l 139 694 l 0 694 l 0 -139 l 139 -139 l 139 139 l 556 139 z m 556 556 l 556 694 l 278 694 l 278 556 z m 556 556 l 556 278 l 694 278 l 694 556 z "},"q":{"ha":833,"x_min":0,"x_max":0,"o":"m 556 694 l 556 556 l 417 556 l 417 417 l 556 417 l 556 278 l 139 278 l 139 139 l 556 139 l 556 -139 l 694 -139 l 694 694 z m 417 556 l 417 694 l 139 694 l 139 556 z m 139 556 l 0 556 l 0 278 l 139 278 z "},"r":{"ha":833,"x_min":0,"x_max":0,"o":"m 139 694 l 0 694 l 0 0 l 139 0 l 139 417 l 278 417 l 278 556 l 139 556 z m 556 694 l 278 694 l 278 556 l 556 556 z m 556 556 l 556 417 l 694 417 l 694 556 z "},"s":{"ha":833,"x_min":0,"x_max":0,"o":"m 139 556 l 694 556 l 694 694 l 139 694 z m 0 556 l 0 417 l 139 417 l 139 556 z m 139 278 l 556 278 l 556 417 l 139 417 z m 694 139 l 694 278 l 556 278 l 556 139 z m 556 139 l 0 139 l 0 0 l 556 0 z "},"t":{"ha":556,"x_min":0,"x_max":0,"o":"m 278 139 l 278 556 l 417 556 l 417 694 l 278 694 l 278 972 l 139 972 l 139 694 l 0 694 l 0 556 l 139 556 l 139 139 z m 417 0 l 417 139 l 278 139 l 278 0 z "},"u":{"ha":833,"x_min":0,"x_max":0,"o":"m 139 139 l 139 694 l 0 694 l 0 139 z m 556 694 l 556 139 l 139 139 l 139 0 l 694 0 l 694 694 z "},"ú":{"ha":833,"x_min":0,"x_max":0,"o":"m 694 972 l 417 972 l 417 833 l 694 833 z m 139 139 l 139 694 l 0 694 l 0 139 z m 556 694 l 556 139 l 139 139 l 139 0 l 694 0 l 694 694 z "},"û":{"ha":833,"x_min":0,"x_max":0,"o":"m 556 972 l 139 972 l 139 833 l 556 833 z m 0 694 l 139 694 l 139 833 l 0 833 z m 556 833 l 556 694 l 694 694 l 694 833 z m 139 139 l 139 556 l 0 556 l 0 139 z m 556 556 l 556 139 l 139 139 l 139 0 l 694 0 l 694 556 z "},"ü":{"ha":833,"x_min":0,"x_max":0,"o":"m 278 972 l 139 972 l 139 833 l 278 833 z m 556 972 l 417 972 l 417 833 l 556 833 z m 139 139 l 139 694 l 0 694 l 0 139 z m 556 694 l 556 139 l 139 139 l 139 0 l 694 0 l 694 694 z "},"ù":{"ha":833,"x_min":0,"x_max":0,"o":"m 278 833 l 278 972 l 0 972 l 0 833 z m 139 139 l 139 694 l 0 694 l 0 139 z m 556 694 l 556 139 l 139 139 l 139 0 l 694 0 l 694 694 z "},"v":{"ha":833,"x_min":0,"x_max":0,"o":"m 139 278 l 139 694 l 0 694 l 0 278 z m 556 694 l 556 278 l 694 278 l 694 694 z m 139 278 l 139 139 l 278 139 l 278 278 z m 417 139 l 556 139 l 556 278 l 417 278 z m 278 0 l 417 0 l 417 139 l 278 139 z "},"w":{"ha":833,"x_min":0,"x_max":0,"o":"m 139 139 l 139 694 l 0 694 l 0 139 z m 556 694 l 556 139 l 417 139 l 417 417 l 278 417 l 278 139 l 139 139 l 139 0 l 694 0 l 694 694 z "},"x":{"ha":833,"x_min":0,"x_max":0,"o":"m 0 556 l 139 556 l 139 694 l 0 694 z m 556 556 l 694 556 l 694 694 l 556 694 z m 139 417 l 278 417 l 278 556 l 139 556 z m 417 417 l 556 417 l 556 556 l 417 556 z m 278 278 l 417 278 l 417 417 l 278 417 z m 139 139 l 278 139 l 278 278 l 139 278 z m 417 139 l 556 139 l 556 278 l 417 278 z m 0 0 l 139 0 l 139 139 l 0 139 z m 556 0 l 694 0 l 694 139 l 556 139 z "},"y":{"ha":833,"x_min":0,"x_max":0,"o":"m 139 278 l 139 694 l 0 694 l 0 278 z m 556 694 l 556 278 l 139 278 l 139 139 l 556 139 l 556 0 l 694 0 l 694 694 z m 556 0 l 0 0 l 0 -139 l 556 -139 z "},"ÿ":{"ha":833,"x_min":0,"x_max":0,"o":"m 278 972 l 139 972 l 139 833 l 278 833 z m 556 972 l 417 972 l 417 833 l 556 833 z m 139 278 l 139 694 l 0 694 l 0 278 z m 556 694 l 556 278 l 139 278 l 139 139 l 556 139 l 556 0 l 694 0 l 694 694 z m 556 0 l 0 0 l 0 -139 l 556 -139 z "},"z":{"ha":833,"x_min":0,"x_max":0,"o":"m 556 556 l 694 556 l 694 694 l 0 694 l 0 556 l 417 556 l 417 417 l 556 417 z m 417 417 l 278 417 l 278 278 l 417 278 z m 139 278 l 139 139 l 0 139 l 0 0 l 694 0 l 694 139 l 278 139 l 278 278 z "},"Ω":{"ha":833,"x_min":0,"x_max":0,"o":"m 556 972 l 139 972 l 139 833 l 556 833 z m 0 833 l 0 278 l 139 278 l 139 833 z m 556 833 l 556 278 l 694 278 l 694 833 z m 0 139 l 0 0 l 278 0 l 278 278 l 139 278 l 139 139 z m 417 278 l 417 0 l 694 0 l 694 139 l 556 139 l 556 278 z "},".":{"ha":278,"x_min":0,"x_max":0,"o":"m 0 278 l 0 0 l 139 0 l 139 278 z "},",":{"ha":278,"x_min":0,"x_max":0,"o":"m 0 278 l 0 -139 l 139 -139 l 139 278 z "},":":{"ha":278,"x_min":0,"x_max":0,"o":"m 0 833 l 0 556 l 139 556 l 139 833 z m 0 278 l 0 0 l 139 0 l 139 278 z "},";":{"ha":278,"x_min":0,"x_max":0,"o":"m 0 833 l 0 556 l 139 556 l 139 833 z m 0 278 l 0 -139 l 139 -139 l 139 278 z "},"!":{"ha":278,"x_min":0,"x_max":0,"o":"m 0 972 l 0 278 l 139 278 l 139 972 z m 0 0 l 139 0 l 139 139 l 0 139 z "},"¡":{"ha":278,"x_min":0,"x_max":0,"o":"m 0 833 l 0 694 l 139 694 l 139 833 z m 0 556 l 0 0 l 139 0 l 139 556 z "},"?":{"ha":833,"x_min":0,"x_max":0,"o":"m 556 972 l 139 972 l 139 833 l 556 833 z m 0 694 l 139 694 l 139 833 l 0 833 z m 556 833 l 556 556 l 694 556 l 694 833 z m 417 417 l 556 417 l 556 556 l 417 556 z m 278 278 l 417 278 l 417 417 l 278 417 z m 278 0 l 417 0 l 417 139 l 278 139 z "},"¿":{"ha":833,"x_min":0,"x_max":0,"o":"m 417 972 l 278 972 l 278 833 l 417 833 z m 417 694 l 278 694 l 278 556 l 417 556 z m 278 556 l 139 556 l 139 417 l 278 417 z m 139 417 l 0 417 l 0 139 l 139 139 z m 556 278 l 556 139 l 694 139 l 694 278 z m 556 139 l 139 139 l 139 0 l 556 0 z "},"·":{"ha":417,"x_min":0,"x_max":0,"o":"m 278 556 l 0 556 l 0 278 l 278 278 z "},"•":{"ha":417,"x_min":0,"x_max":0,"o":"m 278 556 l 0 556 l 0 278 l 278 278 z "},"*":{"ha":694,"x_min":0,"x_max":0,"o":"m 0 694 l 0 556 l 139 556 l 139 694 z m 556 694 l 417 694 l 417 556 l 556 556 z m 417 556 l 139 556 l 139 417 l 417 417 z m 0 278 l 139 278 l 139 417 l 0 417 z m 556 278 l 556 417 l 417 417 l 417 278 z "},"#":{"ha":833,"x_min":0,"x_max":0,"o":"m 694 556 l 694 694 l 556 694 l 556 972 l 417 972 l 417 694 l 278 694 l 278 972 l 139 972 l 139 694 l 0 694 l 0 556 l 139 556 l 139 417 l 0 417 l 0 278 l 139 278 l 139 0 l 278 0 l 278 278 l 417 278 l 417 0 l 556 0 l 556 278 l 694 278 l 694 417 l 556 417 l 556 556 z m 417 417 l 278 417 l 278 556 l 417 556 z "},"/":{"ha":833,"x_min":0,"x_max":0,"o":"m 556 972 l 556 833 l 694 833 l 694 972 z m 417 833 l 417 556 l 556 556 l 556 833 z m 278 417 l 417 417 l 417 556 l 278 556 z m 139 417 l 139 139 l 278 139 l 278 417 z m 0 0 l 139 0 l 139 139 l 0 139 z "},"\\":{"ha":833,"x_min":0,"x_max":0,"o":"m 0 972 l 0 833 l 139 833 l 139 972 z m 278 833 l 139 833 l 139 556 l 278 556 z m 278 556 l 278 417 l 417 417 l 417 556 z m 556 417 l 417 417 l 417 139 l 556 139 z m 556 139 l 556 0 l 694 0 l 694 139 z "},"(":{"ha":694,"x_min":0,"x_max":0,"o":"m 556 833 l 556 972 l 278 972 l 278 833 z m 278 833 l 139 833 l 139 694 l 278 694 z m 139 278 l 139 694 l 0 694 l 0 278 z m 278 139 l 278 278 l 139 278 l 139 139 z m 278 0 l 556 0 l 556 139 l 278 139 z "},")":{"ha":694,"x_min":0,"x_max":0,"o":"m 278 972 l 0 972 l 0 833 l 278 833 z m 278 833 l 278 694 l 417 694 l 417 833 z m 417 694 l 417 278 l 556 278 l 556 694 z m 278 139 l 417 139 l 417 278 l 278 278 z m 0 139 l 0 0 l 278 0 l 278 139 z "},"{":{"ha":694,"x_min":0,"x_max":0,"o":"m 556 833 l 556 972 l 278 972 l 278 833 z m 278 556 l 278 833 l 139 833 l 139 556 z m 0 556 l 0 417 l 139 417 l 139 556 z m 139 139 l 278 139 l 278 417 l 139 417 z m 278 0 l 556 0 l 556 139 l 278 139 z "},"}":{"ha":694,"x_min":0,"x_max":0,"o":"m 278 972 l 0 972 l 0 833 l 278 833 z m 417 833 l 278 833 l 278 556 l 417 556 z m 417 556 l 417 417 l 556 417 l 556 556 z m 278 417 l 278 139 l 417 139 l 417 417 z m 0 139 l 0 0 l 278 0 l 278 139 z "},"[":{"ha":556,"x_min":0,"x_max":0,"o":"m 139 139 l 139 833 l 417 833 l 417 972 l 0 972 l 0 0 l 417 0 l 417 139 z "},"]":{"ha":556,"x_min":0,"x_max":0,"o":"m 417 972 l 0 972 l 0 833 l 278 833 l 278 139 l 0 139 l 0 0 l 417 0 z "},"-":{"ha":833,"x_min":0,"x_max":0,"o":"m 694 556 l 0 556 l 0 417 l 694 417 z "},"­":{"ha":417,"x_min":0,"x_max":0,"o":"m 278 556 l 0 556 l 0 417 l 278 417 z "},"—":{"ha":833,"x_min":0,"x_max":0,"o":"m 694 556 l 0 556 l 0 417 l 694 417 z "},"_":{"ha":833,"x_min":0,"x_max":0,"o":"m 694 0 l 0 0 l 0 -139 l 694 -139 z "},"«":{"ha":833,"x_min":0,"x_max":0,"o":"m 278 556 l 417 556 l 417 694 l 278 694 z m 556 556 l 694 556 l 694 694 l 556 694 z m 139 417 l 278 417 l 278 556 l 139 556 z m 417 417 l 556 417 l 556 556 l 417 556 z m 0 278 l 139 278 l 139 417 l 0 417 z m 278 278 l 417 278 l 417 417 l 278 417 z m 139 139 l 278 139 l 278 278 l 139 278 z m 417 139 l 556 139 l 556 278 l 417 278 z m 278 0 l 417 0 l 417 139 l 278 139 z m 556 0 l 694 0 l 694 139 l 556 139 z "},"»":{"ha":833,"x_min":0,"x_max":0,"o":"m 0 556 l 139 556 l 139 694 l 0 694 z m 278 556 l 417 556 l 417 694 l 278 694 z m 139 417 l 278 417 l 278 556 l 139 556 z m 417 417 l 556 417 l 556 556 l 417 556 z m 278 278 l 417 278 l 417 417 l 278 417 z m 556 278 l 694 278 l 694 417 l 556 417 z m 139 139 l 278 139 l 278 278 l 139 278 z m 417 139 l 556 139 l 556 278 l 417 278 z m 0 0 l 139 0 l 139 139 l 0 139 z m 278 0 l 417 0 l 417 139 l 278 139 z "},"\"":{"ha":694,"x_min":0,"x_max":0,"o":"m 278 972 l 139 972 l 139 694 l 278 694 z m 417 972 l 417 694 l 556 694 l 556 972 z m 0 556 l 139 556 l 139 694 l 0 694 z m 278 556 l 417 556 l 417 694 l 278 694 z "},"'":{"ha":417,"x_min":0,"x_max":0,"o":"m 139 972 l 139 694 l 278 694 l 278 972 z m 0 556 l 139 556 l 139 694 l 0 694 z "}," ":{"ha":556,"x_min":0,"x_max":0,"o":""},"¢":{"ha":694,"x_min":0,"x_max":0,"o":"m 139 417 l 556 417 l 556 556 l 417 556 l 417 694 l 278 694 l 278 556 l 139 556 z m 0 417 l 0 278 l 139 278 l 139 417 z m 278 139 l 278 0 l 417 0 l 417 139 l 556 139 l 556 278 l 139 278 l 139 139 z "},"¤":{"ha":556,"x_min":0,"x_max":0,"o":"m 0 556 l 139 556 l 139 694 l 0 694 z m 278 556 l 417 556 l 417 694 l 278 694 z m 139 417 l 278 417 l 278 556 l 139 556 z m 0 278 l 139 278 l 139 417 l 0 417 z m 278 278 l 417 278 l 417 417 l 278 417 z "},"$":{"ha":833,"x_min":0,"x_max":0,"o":"m 139 694 l 694 694 l 694 833 l 417 833 l 417 972 l 278 972 l 278 833 l 139 833 z m 0 694 l 0 556 l 139 556 l 139 694 z m 139 417 l 556 417 l 556 556 l 139 556 z m 694 278 l 694 417 l 556 417 l 556 278 z m 556 278 l 0 278 l 0 139 l 278 139 l 278 0 l 417 0 l 417 139 l 556 139 z "},"ƒ":{"ha":833,"x_min":0,"x_max":0,"o":"m 417 972 l 417 833 l 556 833 l 556 972 z m 278 833 l 278 556 l 139 556 l 139 417 l 278 417 l 278 139 l 417 139 l 417 417 l 556 417 l 556 556 l 417 556 l 417 833 z m 556 833 l 556 694 l 694 694 l 694 833 z m 0 278 l 0 139 l 139 139 l 139 278 z m 139 0 l 278 0 l 278 139 l 139 139 z "},"£":{"ha":833,"x_min":0,"x_max":0,"o":"m 556 972 l 278 972 l 278 833 l 556 833 z m 139 833 l 139 556 l 0 556 l 0 417 l 139 417 l 139 139 l 0 139 l 0 0 l 694 0 l 694 139 l 278 139 l 278 417 l 556 417 l 556 556 l 278 556 l 278 833 z m 694 694 l 694 833 l 556 833 l 556 694 z "},"+":{"ha":833,"x_min":0,"x_max":0,"o":"m 694 556 l 417 556 l 417 833 l 278 833 l 278 556 l 0 556 l 0 417 l 278 417 l 278 139 l 417 139 l 417 417 l 694 417 z "},"÷":{"ha":833,"x_min":0,"x_max":0,"o":"m 417 833 l 278 833 l 278 694 l 417 694 z m 694 556 l 0 556 l 0 417 l 694 417 z m 278 139 l 417 139 l 417 278 l 278 278 z "},"=":{"ha":833,"x_min":0,"x_max":0,"o":"m 694 694 l 0 694 l 0 556 l 694 556 z m 694 278 l 0 278 l 0 139 l 694 139 z "},">":{"ha":694,"x_min":0,"x_max":0,"o":"m 0 833 l 139 833 l 139 972 l 0 972 z m 139 694 l 278 694 l 278 833 l 139 833 z m 278 556 l 417 556 l 417 694 l 278 694 z m 417 417 l 556 417 l 556 556 l 417 556 z m 278 278 l 417 278 l 417 417 l 278 417 z m 139 139 l 278 139 l 278 278 l 139 278 z m 0 0 l 139 0 l 139 139 l 0 139 z "},"<":{"ha":694,"x_min":0,"x_max":0,"o":"m 417 833 l 556 833 l 556 972 l 417 972 z m 278 694 l 417 694 l 417 833 l 278 833 z m 139 556 l 278 556 l 278 694 l 139 694 z m 0 417 l 139 417 l 139 556 l 0 556 z m 139 278 l 278 278 l 278 417 l 139 417 z m 278 139 l 417 139 l 417 278 l 278 278 z m 417 0 l 556 0 l 556 139 l 417 139 z "},"±":{"ha":833,"x_min":0,"x_max":0,"o":"m 694 694 l 417 694 l 417 972 l 278 972 l 278 694 l 0 694 l 0 556 l 278 556 l 278 278 l 417 278 l 417 556 l 694 556 z m 694 139 l 0 139 l 0 0 l 694 0 z "},"≈":{"ha":1111,"x_min":0,"x_max":0,"o":"m 972 833 l 694 833 l 694 694 l 556 694 l 556 833 l 139 833 l 139 694 l 0 694 l 0 556 l 278 556 l 278 694 l 417 694 l 417 556 l 833 556 l 833 694 l 972 694 z m 694 417 l 694 278 l 556 278 l 556 417 l 139 417 l 139 278 l 0 278 l 0 139 l 278 139 l 278 278 l 417 278 l 417 139 l 833 139 l 833 278 l 972 278 l 972 417 z "},"~":{"ha":972,"x_min":0,"x_max":0,"o":"m 417 972 l 139 972 l 139 833 l 417 833 z m 694 972 l 694 833 l 833 833 l 833 972 z m 0 694 l 139 694 l 139 833 l 0 833 z m 417 833 l 417 694 l 694 694 l 694 833 z "},"¬":{"ha":833,"x_min":0,"x_max":0,"o":"m 694 417 l 0 417 l 0 278 l 556 278 l 556 139 l 694 139 z "},"∞":{"ha":1111,"x_min":0,"x_max":0,"o":"m 417 556 l 417 694 l 139 694 l 139 556 z m 833 556 l 833 694 l 556 694 l 556 556 z m 139 556 l 0 556 l 0 278 l 139 278 z m 556 556 l 417 556 l 417 278 l 556 278 z m 833 556 l 833 278 l 972 278 l 972 556 z m 139 278 l 139 139 l 417 139 l 417 278 z m 556 278 l 556 139 l 833 139 l 833 278 z "},"∑":{"ha":833,"x_min":0,"x_max":0,"o":"m 694 972 l 0 972 l 0 694 l 139 694 l 139 833 l 556 833 l 556 694 l 694 694 z m 278 556 l 278 694 l 139 694 l 139 556 z m 417 417 l 417 556 l 278 556 l 278 417 z m 139 278 l 278 278 l 278 417 l 139 417 z m 0 278 l 0 0 l 694 0 l 694 278 l 556 278 l 556 139 l 139 139 l 139 278 z "},"√":{"ha":1250,"x_min":0,"x_max":0,"o":"m 1111 972 l 556 972 l 556 278 l 417 278 l 417 556 l 0 556 l 0 417 l 139 417 l 139 278 l 278 278 l 278 139 l 417 139 l 417 0 l 833 0 l 833 833 l 1111 833 z "},"%":{"ha":833,"x_min":0,"x_max":0,"o":"m 139 694 l 139 972 l 0 972 l 0 694 z m 556 972 l 556 833 l 694 833 l 694 972 z m 417 833 l 417 556 l 556 556 l 556 833 z m 278 417 l 417 417 l 417 556 l 278 556 z m 139 417 l 139 139 l 278 139 l 278 417 z m 556 278 l 556 0 l 694 0 l 694 278 z m 0 0 l 139 0 l 139 139 l 0 139 z "},"☺":{"ha":1250,"x_min":0,"x_max":0,"o":"m 139 833 l 972 833 l 972 972 l 139 972 z m 139 0 l 139 833 l 0 833 l 0 0 z m 972 833 l 972 0 l 1111 0 l 1111 833 z m 417 694 l 278 694 l 278 556 l 417 556 z m 694 556 l 833 556 l 833 694 l 694 694 z m 833 417 l 278 417 l 278 278 l 417 278 l 417 139 l 694 139 l 694 278 l 833 278 z m 972 0 l 139 0 l 139 -139 l 972 -139 z "},"☻":{"ha":1250,"x_min":0,"x_max":0,"o":"m 972 833 l 972 972 l 139 972 l 139 833 l 0 833 l 0 0 l 139 0 l 139 -139 l 972 -139 l 972 0 l 1111 0 l 1111 833 z m 278 694 l 417 694 l 417 556 l 278 556 z m 833 556 l 694 556 l 694 694 l 833 694 z m 833 278 l 694 278 l 694 139 l 417 139 l 417 278 l 278 278 l 278 417 l 833 417 z "},"☼":{"ha":1250,"x_min":0,"x_max":0,"o":"m 0 972 l 0 833 l 139 833 l 139 972 z m 694 694 l 694 972 l 417 972 l 417 694 l 278 694 l 278 556 l 0 556 l 0 278 l 278 278 l 278 139 l 417 139 l 417 -139 l 694 -139 l 694 139 l 833 139 l 833 278 l 1111 278 l 1111 556 l 833 556 l 833 694 z m 1111 972 l 972 972 l 972 833 l 1111 833 z m 139 833 l 139 694 l 278 694 l 278 833 z m 972 833 l 833 833 l 833 694 l 972 694 z m 694 556 l 694 278 l 417 278 l 417 556 z m 139 0 l 278 0 l 278 139 l 139 139 z m 972 0 l 972 139 l 833 139 l 833 0 z m 0 -139 l 139 -139 l 139 0 l 0 0 z m 1111 -139 l 1111 0 l 972 0 l 972 -139 z "},"♀":{"ha":833,"x_min":0,"x_max":0,"o":"m 139 833 l 556 833 l 556 972 l 139 972 z m 139 417 l 139 833 l 0 833 l 0 417 z m 556 833 l 556 417 l 694 417 l 694 833 z m 556 417 l 139 417 l 139 278 l 278 278 l 278 139 l 139 139 l 139 0 l 278 0 l 278 -139 l 417 -139 l 417 0 l 556 0 l 556 139 l 417 139 l 417 278 l 556 278 z "},"♂":{"ha":1111,"x_min":0,"x_max":0,"o":"m 972 972 l 556 972 l 556 833 l 694 833 l 694 694 l 833 694 l 833 556 l 972 556 z m 556 556 l 694 556 l 694 694 l 556 694 z m 556 556 l 139 556 l 139 417 l 556 417 z m 139 0 l 139 417 l 0 417 l 0 0 z m 556 417 l 556 0 l 694 0 l 694 417 z m 556 0 l 139 0 l 139 -139 l 556 -139 z "},"♠":{"ha":1111,"x_min":0,"x_max":0,"o":"m 833 417 l 833 556 l 694 556 l 694 694 l 556 694 l 556 972 l 417 972 l 417 694 l 278 694 l 278 556 l 139 556 l 139 417 l 0 417 l 0 278 l 139 278 l 139 139 l 278 139 l 278 0 l 139 0 l 139 -139 l 833 -139 l 833 0 l 694 0 l 694 139 l 833 139 l 833 278 l 972 278 l 972 417 z "},"♣":{"ha":1111,"x_min":0,"x_max":0,"o":"m 972 556 l 694 556 l 694 694 l 833 694 l 833 833 l 694 833 l 694 972 l 278 972 l 278 833 l 139 833 l 139 694 l 278 694 l 278 556 l 0 556 l 0 278 l 139 278 l 139 139 l 278 139 l 278 0 l 139 0 l 139 -139 l 833 -139 l 833 0 l 694 0 l 694 139 l 833 139 l 833 278 l 972 278 z "},"♥":{"ha":1111,"x_min":0,"x_max":0,"o":"m 833 833 l 833 972 l 556 972 l 556 833 l 417 833 l 417 972 l 139 972 l 139 833 l 0 833 l 0 417 l 139 417 l 139 278 l 278 278 l 278 139 l 417 139 l 417 0 l 556 0 l 556 139 l 694 139 l 694 278 l 833 278 l 833 417 l 972 417 l 972 833 z "},"♦":{"ha":1111,"x_min":0,"x_max":0,"o":"m 833 556 l 833 694 l 694 694 l 694 833 l 556 833 l 556 972 l 417 972 l 417 833 l 278 833 l 278 694 l 139 694 l 139 556 l 0 556 l 0 417 l 139 417 l 139 278 l 278 278 l 278 139 l 417 139 l 417 0 l 556 0 l 556 139 l 694 139 l 694 278 l 833 278 l 833 417 l 972 417 l 972 556 z "},"@":{"ha":972,"x_min":0,"x_max":0,"o":"m 694 972 l 139 972 l 139 833 l 694 833 z m 0 833 l 0 139 l 139 139 l 139 833 z m 694 833 l 694 417 l 556 417 l 556 694 l 278 694 l 278 278 l 833 278 l 833 833 z m 139 0 l 694 0 l 694 139 l 139 139 z "},"&":{"ha":833,"x_min":0,"x_max":0,"o":"m 417 972 l 278 972 l 278 833 l 417 833 z m 139 833 l 139 694 l 278 694 l 278 833 z m 556 694 l 556 833 l 417 833 l 417 694 z m 556 417 l 417 417 l 417 694 l 278 694 l 278 556 l 139 556 l 139 417 l 278 417 l 278 278 l 417 278 l 417 139 l 556 139 z m 694 556 l 556 556 l 556 417 l 694 417 z m 139 417 l 0 417 l 0 139 l 139 139 z m 139 139 l 139 0 l 417 0 l 417 139 z m 694 0 l 694 139 l 556 139 l 556 0 z "},"¶":{"ha":972,"x_min":0,"x_max":0,"o":"m 833 972 l 139 972 l 139 833 l 417 833 l 417 556 l 139 556 l 139 417 l 417 417 l 417 0 l 556 0 l 556 833 l 694 833 l 694 0 l 833 0 z m 139 833 l 0 833 l 0 556 l 139 556 z "},"§":{"ha":833,"x_min":0,"x_max":0,"o":"m 139 833 l 694 833 l 694 972 l 139 972 z m 0 833 l 0 694 l 139 694 l 139 833 z m 139 556 l 556 556 l 556 694 l 139 694 z m 0 556 l 0 417 l 139 417 l 139 556 z m 694 417 l 694 556 l 556 556 l 556 417 z m 556 417 l 139 417 l 139 278 l 556 278 z m 694 139 l 694 278 l 556 278 l 556 139 z m 556 139 l 0 139 l 0 0 l 556 0 z "},"®":{"ha":972,"x_min":0,"x_max":0,"o":"m 278 556 l 278 278 l 417 278 l 417 417 l 556 417 l 556 556 l 694 556 l 694 694 l 139 694 l 139 556 z m 556 278 l 417 278 l 417 139 l 278 139 l 278 278 l 139 278 l 139 556 l 0 556 l 0 139 l 139 139 l 139 0 l 694 0 l 694 139 l 556 139 z m 694 556 l 694 139 l 833 139 l 833 556 z "},"|":{"ha":278,"x_min":0,"x_max":0,"o":"m 0 972 l 0 556 l 139 556 l 139 972 z m 0 417 l 0 0 l 139 0 l 139 417 z "},"^":{"ha":833,"x_min":0,"x_max":0,"o":"m 278 833 l 417 833 l 417 972 l 278 972 z m 139 694 l 278 694 l 278 833 l 139 833 z m 417 694 l 556 694 l 556 833 l 417 833 z m 0 556 l 139 556 l 139 694 l 0 694 z m 556 556 l 694 556 l 694 694 l 556 694 z "},"⌂":{"ha":833,"x_min":0,"x_max":0,"o":"m 417 694 l 278 694 l 278 556 l 417 556 z m 278 556 l 139 556 l 139 417 l 278 417 z m 556 417 l 556 556 l 417 556 l 417 417 z m 556 417 l 556 139 l 139 139 l 139 417 l 0 417 l 0 0 l 694 0 l 694 417 z "},"¸":{"ha":556,"x_min":0,"x_max":0,"o":"m 278 0 l 278 -139 l 417 -139 l 417 0 z m 0 -139 l 0 -278 l 278 -278 l 278 -139 z "}}}
